%TF.GenerationSoftware,KiCad,Pcbnew,8.0.9-8.0.9-0~ubuntu24.04.1*%
%TF.CreationDate,2025-12-06T18:21:54+00:00*%
%TF.ProjectId,app_board,6170705f-626f-4617-9264-2e6b69636164,rev?*%
%TF.SameCoordinates,Original*%
%TF.FileFunction,Paste,Top*%
%TF.FilePolarity,Positive*%
%FSLAX46Y46*%
G04 Gerber Fmt 4.6, Leading zero omitted, Abs format (unit mm)*
G04 Created by KiCad (PCBNEW 8.0.9-8.0.9-0~ubuntu24.04.1) date 2025-12-06 18:21:54*
%MOMM*%
%LPD*%
G01*
G04 APERTURE LIST*
G04 Aperture macros list*
%AMRoundRect*
0 Rectangle with rounded corners*
0 $1 Rounding radius*
0 $2 $3 $4 $5 $6 $7 $8 $9 X,Y pos of 4 corners*
0 Add a 4 corners polygon primitive as box body*
4,1,4,$2,$3,$4,$5,$6,$7,$8,$9,$2,$3,0*
0 Add four circle primitives for the rounded corners*
1,1,$1+$1,$2,$3*
1,1,$1+$1,$4,$5*
1,1,$1+$1,$6,$7*
1,1,$1+$1,$8,$9*
0 Add four rect primitives between the rounded corners*
20,1,$1+$1,$2,$3,$4,$5,0*
20,1,$1+$1,$4,$5,$6,$7,0*
20,1,$1+$1,$6,$7,$8,$9,0*
20,1,$1+$1,$8,$9,$2,$3,0*%
G04 Aperture macros list end*
%ADD10RoundRect,0.250001X-0.462499X-0.624999X0.462499X-0.624999X0.462499X0.624999X-0.462499X0.624999X0*%
%ADD11RoundRect,0.250000X0.450000X-0.350000X0.450000X0.350000X-0.450000X0.350000X-0.450000X-0.350000X0*%
%ADD12R,2.200000X3.800000*%
%ADD13O,1.800000X1.100000*%
%ADD14R,3.800000X2.200000*%
%ADD15O,1.450000X1.050000*%
%ADD16RoundRect,0.300000X0.450000X-0.450000X0.450000X0.450000X-0.450000X0.450000X-0.450000X-0.450000X0*%
%ADD17RoundRect,0.150000X-0.587500X-0.150000X0.587500X-0.150000X0.587500X0.150000X-0.587500X0.150000X0*%
%ADD18RoundRect,0.300000X-0.450000X0.450000X-0.450000X-0.450000X0.450000X-0.450000X0.450000X0.450000X0*%
%ADD19R,0.300000X1.300000*%
%ADD20R,1.800000X2.200000*%
%ADD21RoundRect,0.250000X-0.337500X-0.475000X0.337500X-0.475000X0.337500X0.475000X-0.337500X0.475000X0*%
%ADD22RoundRect,0.150000X-0.825000X-0.150000X0.825000X-0.150000X0.825000X0.150000X-0.825000X0.150000X0*%
G04 APERTURE END LIST*
D10*
%TO.C,D101*%
X231362500Y-114950000D03*
X234337500Y-114950000D03*
%TD*%
D11*
%TO.C,R201*%
X242400000Y-118600000D03*
X242400000Y-116600000D03*
%TD*%
D12*
%TO.C,A102*%
X247070000Y-142540000D03*
X249610000Y-142540000D03*
X252150000Y-142540000D03*
X254690000Y-142540000D03*
X257230000Y-142540000D03*
X259770000Y-142540000D03*
X262310000Y-142540000D03*
X264850000Y-142540000D03*
X267390000Y-142540000D03*
X269930000Y-142540000D03*
X272470000Y-142540000D03*
X275010000Y-142540000D03*
X277550000Y-142540000D03*
X280090000Y-142540000D03*
X282630000Y-142540000D03*
X285170000Y-142540000D03*
X287710000Y-142540000D03*
X290250000Y-142540000D03*
X292790000Y-142540000D03*
X295330000Y-142540000D03*
D13*
X247200000Y-135575000D03*
D14*
X295900000Y-135390000D03*
D15*
X250230000Y-135275000D03*
D14*
X295900000Y-132850000D03*
D15*
X250230000Y-130425000D03*
D14*
X295900000Y-130310000D03*
D13*
X247200000Y-130125000D03*
D12*
X247070000Y-123160000D03*
X249610000Y-123160000D03*
X252150000Y-123160000D03*
X254690000Y-123160000D03*
X257230000Y-123160000D03*
X259770000Y-123160000D03*
X262310000Y-123160000D03*
X264850000Y-123160000D03*
X267390000Y-123160000D03*
X269930000Y-123160000D03*
X272470000Y-123160000D03*
X275010000Y-123160000D03*
X277550000Y-123160000D03*
X280090000Y-123160000D03*
X282630000Y-123160000D03*
X285170000Y-123160000D03*
X287710000Y-123160000D03*
X290250000Y-123160000D03*
X292790000Y-123160000D03*
X295330000Y-123160000D03*
D16*
X250200000Y-132850000D03*
X246900000Y-131850000D03*
X246900000Y-133850000D03*
X253700000Y-135350000D03*
X256200000Y-135350000D03*
X258700000Y-135350000D03*
%TD*%
D17*
%TO.C,Q202*%
X237025000Y-116800000D03*
X237025000Y-118700000D03*
X238900000Y-117750000D03*
%TD*%
D12*
%TO.C,A101*%
X187980000Y-122210000D03*
X185440000Y-122210000D03*
X182900000Y-122210000D03*
X180360000Y-122210000D03*
X177820000Y-122210000D03*
X175280000Y-122210000D03*
X172740000Y-122210000D03*
X170200000Y-122210000D03*
X167660000Y-122210000D03*
X165120000Y-122210000D03*
X162580000Y-122210000D03*
X160040000Y-122210000D03*
X157500000Y-122210000D03*
X154960000Y-122210000D03*
X152420000Y-122210000D03*
X149880000Y-122210000D03*
X147340000Y-122210000D03*
X144800000Y-122210000D03*
X142260000Y-122210000D03*
X139720000Y-122210000D03*
D13*
X187850000Y-129175000D03*
D14*
X139150000Y-129360000D03*
D15*
X184820000Y-129475000D03*
D14*
X139150000Y-131900000D03*
D15*
X184820000Y-134325000D03*
D14*
X139150000Y-134440000D03*
D13*
X187850000Y-134625000D03*
D12*
X187980000Y-141590000D03*
X185440000Y-141590000D03*
X182900000Y-141590000D03*
X180360000Y-141590000D03*
X177820000Y-141590000D03*
X175280000Y-141590000D03*
X172740000Y-141590000D03*
X170200000Y-141590000D03*
X167660000Y-141590000D03*
X165120000Y-141590000D03*
X162580000Y-141590000D03*
X160040000Y-141590000D03*
X157500000Y-141590000D03*
X154960000Y-141590000D03*
X152420000Y-141590000D03*
X149880000Y-141590000D03*
X147340000Y-141590000D03*
X144800000Y-141590000D03*
X142260000Y-141590000D03*
X139720000Y-141590000D03*
D18*
X184850000Y-131900000D03*
X188150000Y-132900000D03*
X188150000Y-130900000D03*
X181350000Y-129400000D03*
X178850000Y-129400000D03*
X176350000Y-129400000D03*
%TD*%
D19*
%TO.C,J201*%
X215050000Y-132150000D03*
X215550000Y-132150000D03*
X216050000Y-132150000D03*
X216550000Y-132150000D03*
X217050000Y-132150000D03*
X217550000Y-132150000D03*
X218050000Y-132150000D03*
X218550000Y-132150000D03*
X219050000Y-132150000D03*
X219550000Y-132150000D03*
X220050000Y-132150000D03*
X220550000Y-132150000D03*
X221050000Y-132150000D03*
X221550000Y-132150000D03*
X222050000Y-132150000D03*
X222550000Y-132150000D03*
X223050000Y-132150000D03*
X223550000Y-132150000D03*
X224050000Y-132150000D03*
X224550000Y-132150000D03*
X225050000Y-132150000D03*
X225550000Y-132150000D03*
X226050000Y-132150000D03*
X226550000Y-132150000D03*
X227050000Y-132150000D03*
X227550000Y-132150000D03*
X228050000Y-132150000D03*
X228550000Y-132150000D03*
X229050000Y-132150000D03*
X229550000Y-132150000D03*
X230050000Y-132150000D03*
X230550000Y-132150000D03*
X231050000Y-132150000D03*
X231550000Y-132150000D03*
X232050000Y-132150000D03*
X232550000Y-132150000D03*
X233050000Y-132150000D03*
X233550000Y-132150000D03*
X234050000Y-132150000D03*
X234550000Y-132150000D03*
D20*
X213150000Y-135400000D03*
X236450000Y-135400000D03*
%TD*%
D17*
%TO.C,Q201*%
X237125000Y-122850000D03*
X237125000Y-124750000D03*
X239000000Y-123800000D03*
%TD*%
D21*
%TO.C,C201*%
X75812500Y-117600000D03*
X77887500Y-117600000D03*
%TD*%
D22*
%TO.C,U201*%
X77600000Y-120750000D03*
X77600000Y-122020000D03*
X77600000Y-123290000D03*
X77600000Y-124560000D03*
X82550000Y-124560000D03*
X82550000Y-123290000D03*
X82550000Y-122020000D03*
X82550000Y-120750000D03*
%TD*%
D11*
%TO.C,R202*%
X242600000Y-124650000D03*
X242600000Y-122650000D03*
%TD*%
M02*
