M48
; DRILL file {KiCad 8.0.9-8.0.9-0~ubuntu24.04.1} date 2025-12-06T18:22:13+0000
; FORMAT={-:-/ absolute / metric / decimal}
; #@! TF.CreationDate,2025-12-06T18:22:13+00:00
; #@! TF.GenerationSoftware,Kicad,Pcbnew,8.0.9-8.0.9-0~ubuntu24.04.1
; #@! TF.FileFunction,Plated,1,2,PTH
FMAT,2
METRIC
; #@! TA.AperFunction,Plated,PTH,ViaDrill
T1C0.300
; #@! TA.AperFunction,Plated,PTH,ComponentDrill
T2C0.700
; #@! TA.AperFunction,Plated,PTH,ComponentDrill
T3C1.000
; #@! TA.AperFunction,Plated,PTH,ComponentDrill
T4C2.200
%
G90
G05
T1
X74.5Y-130.3
X74.8Y-139.05
X75.85Y-115.4
X78.65Y-129.35
X79.1Y-117.65
X80.1Y-130.45
X80.1Y-133.0
X80.2Y-144.1
X80.7Y-129.5
X80.85Y-122.1
X80.9Y-124.75
X81.8Y-151.1
X82.55Y-115.5
X85.0Y-124.45
X86.0Y-122.1
X86.0Y-147.4
X87.25Y-134.75
X87.25Y-152.35
X119.25Y-151.1
X119.35Y-115.15
X120.35Y-114.4
X120.4Y-149.7
X121.2Y-113.15
X121.2Y-148.8
X123.15Y-127.35
X123.15Y-146.3
X123.3Y-111.35
X123.4Y-115.65
X124.25Y-122.55
X124.3Y-112.35
X124.3Y-119.5
X124.3Y-145.4
X125.25Y-117.8
X125.35Y-144.6
X126.35Y-141.55
X126.35Y-148.15
X126.6Y-113.15
X126.6Y-124.35
X127.7Y-114.0
X127.7Y-129.7
X128.55Y-114.8
X128.55Y-134.4
X129.6Y-115.55
X129.6Y-139.4
X130.5Y-143.75
X130.55Y-116.95
X131.85Y-117.75
X131.85Y-120.2
X132.85Y-118.5
X132.85Y-125.3
X133.85Y-119.75
X133.85Y-136.8
X134.75Y-119.15
X134.75Y-132.0
X136.45Y-151.7
X137.35Y-153.85
X139.85Y-119.8
X140.1Y-153.6
X141.65Y-131.9
X142.2Y-119.2
X142.7Y-153.1
X144.65Y-139.1
X144.8Y-124.65
X147.2Y-147.15
X147.35Y-118.5
X149.7Y-118.0
X149.8Y-148.15
X152.25Y-116.25
X152.5Y-148.75
X154.5Y-116.95
X154.95Y-149.7
X157.45Y-124.65
X157.5Y-139.2
X160.04Y-115.65
X160.2Y-147.7
X162.7Y-115.0
X165.1Y-114.1
X165.25Y-144.6
X167.6Y-145.45
X167.775Y-113.15
X170.1Y-124.65
X172.6Y-146.3
X172.7Y-116.9
X175.4Y-119.0
X177.7Y-112.25
X177.9Y-150.95
X180.3Y-111.5
X182.85Y-124.55
X182.95Y-139.1
X185.4Y-117.85
X185.45Y-144.35
X190.0Y-148.0
X190.05Y-121.65
X191.6Y-119.0
X191.65Y-142.75
X191.95Y-116.9
X192.35Y-141.3
X193.0Y-144.4
X193.05Y-116.8
X193.7Y-140.4
X194.7Y-121.65
X194.7Y-141.65
X195.65Y-143.5
X195.65Y-147.45
X196.45Y-118.0
X196.45Y-148.1
X196.5Y-142.1
X196.55Y-144.0
X197.45Y-145.0
X197.982Y-133.868
X198.1Y-130.2
X198.15Y-122.2
X198.15Y-134.65
X198.2Y-118.05
X198.2Y-126.7
X199.8Y-126.15
X199.8Y-145.5
X200.701Y-130.249
X200.8Y-133.099
X201.45Y-147.9
X202.15Y-147.3
X202.8Y-126.15
X203.0Y-146.65
X203.4Y-138.8
X203.95Y-130.7
X204.35Y-135.0
X204.4Y-125.55
X204.5Y-117.45
X204.5Y-121.35
X204.7Y-146.05
X206.9Y-130.7
X206.95Y-148.8
X207.3Y-136.0
X207.45Y-130.05
X207.5Y-118.05
X207.9Y-144.1
X207.95Y-126.5
X208.0Y-135.1
X208.0Y-138.2
X208.05Y-132.699
X208.1Y-140.15
X208.65Y-144.85
X208.7Y-125.55
X208.719Y-135.45
X208.9Y-139.65
X209.3Y-121.35
X209.319Y-134.85
X209.5Y-136.7
X209.5Y-145.45
X210.1Y-117.45
X210.105Y-134.699
X210.35Y-137.25
X210.35Y-146.05
X210.705Y-122.1
X210.705Y-130.55
X211.1Y-137.8
X211.1Y-148.55
X212.4Y-143.35
X212.4Y-146.05
X213.0Y-142.75
X213.0Y-145.45
X213.55Y-131.2
X214.4Y-132.15
X214.6Y-152.4
X215.55Y-133.75
X216.6Y-133.35
X217.252Y-134.57
X217.55Y-130.9
X217.927Y-135.0
X218.45Y-133.797
X218.697Y-135.397
X220.45Y-134.493
X220.464Y-135.339
X220.65Y-139.55
X220.651Y-136.6
X221.501Y-135.151
X222.05Y-133.8
X222.45Y-138.034
X222.85Y-138.8
X223.2Y-151.6
X223.25Y-140.052
X223.85Y-140.65
X224.45Y-135.95
X224.55Y-133.311
X225.05Y-134.3
X225.829Y-134.689
X226.4Y-135.25
X227.05Y-133.55
X227.05Y-136.55
X227.75Y-139.2
X228.45Y-145.45
X228.9Y-138.15
X229.2Y-137.3
X229.4Y-135.9
X229.55Y-133.45
X229.75Y-139.2
X230.35Y-152.5
X230.45Y-136.5
X230.6Y-135.7
X231.0Y-141.05
X231.05Y-134.3
X231.3Y-116.8
X231.55Y-139.9
X232.465Y-135.826
X232.8Y-135.1
X232.95Y-134.3
X233.1Y-138.15
X234.0Y-133.95
X234.4Y-110.9
X234.4Y-151.85
X234.65Y-116.8
X234.8Y-139.95
X235.05Y-133.35
X235.1Y-122.9
X235.1Y-127.0
X235.2Y-121.0
X235.7Y-124.7
X235.7Y-130.2
X235.8Y-119.7
X236.05Y-122.85
X236.05Y-141.3
X236.75Y-130.25
X236.95Y-137.35
X237.0Y-119.65
X237.05Y-115.95
X237.15Y-127.0
X238.2Y-153.85
X238.25Y-141.4
X238.3Y-122.8
X238.5Y-133.15
X239.05Y-121.7
X239.1Y-119.85
X239.55Y-135.25
X239.6Y-131.65
X240.25Y-134.55
X240.45Y-125.95
X240.5Y-122.35
X240.55Y-146.05
X241.2Y-115.95
X241.25Y-121.9
X241.35Y-122.7
X242.1Y-133.95
X242.15Y-140.6
X242.45Y-119.85
X242.6Y-125.95
X244.0Y-140.6
X244.0Y-146.65
X244.1Y-150.35
X244.15Y-139.3
X244.8Y-147.3
X244.85Y-149.65
X245.6Y-147.95
X245.6Y-149.2
X246.95Y-148.6
X248.15Y-150.5
X248.15Y-152.85
X249.1Y-151.15
X249.1Y-153.55
X249.55Y-121.0
X249.55Y-147.15
X252.1Y-140.25
X252.2Y-125.4
X255.05Y-147.75
X255.79Y-111.75
X257.2Y-125.25
X260.9Y-115.65
X262.3Y-126.0
X262.35Y-112.146
X264.85Y-140.1
X267.25Y-129.85
X267.4Y-116.25
X269.9Y-120.1
X269.95Y-148.25
X272.47Y-146.65
X273.6Y-112.746
X274.95Y-126.65
X276.7Y-121.05
X277.5Y-140.25
X280.0Y-114.55
X281.2Y-116.85
X282.25Y-127.05
X282.6Y-115.05
X285.1Y-130.55
X285.1Y-131.5
X287.55Y-146.05
X287.75Y-139.35
X289.45Y-121.05
X290.15Y-140.2
X292.7Y-120.8
X292.8Y-144.75
X293.5Y-132.9
X295.4Y-145.45
X296.9Y-123.96
X298.2Y-135.4
X298.45Y-131.85
X298.56Y-123.96
X299.05Y-150.5
X299.75Y-151.15
X299.8Y-120.95
X300.7Y-131.9
X300.7Y-152.35
X301.65Y-135.4
X301.65Y-151.8
X305.3Y-146.05
X306.0Y-116.85
X306.05Y-144.85
X307.95Y-112.746
X308.05Y-126.2
X310.15Y-149.8
X311.0Y-148.0
X311.55Y-116.25
X312.95Y-148.6
X313.05Y-125.8
X313.1Y-130.45
X313.15Y-112.146
X315.9Y-139.35
X316.0Y-149.2
X316.25Y-115.6
X317.75Y-139.4
X317.8Y-129.85
X317.8Y-147.3
X317.85Y-125.4
X317.95Y-111.85
X325.65Y-110.95
X325.7Y-144.4
X326.75Y-137.8
X326.8Y-120.05
X327.85Y-136.95
X327.9Y-135.25
X327.95Y-132.35
X327.95Y-133.85
X329.9Y-143.5
X329.95Y-127.5
X331.05Y-126.45
X331.1Y-138.75
X331.85Y-128.95
X331.85Y-145.95
X331.95Y-125.1
X332.55Y-136.35
X332.6Y-141.65
X332.7Y-118.45
X332.7Y-130.2
X333.5Y-139.0
X333.5Y-150.4
X333.6Y-123.15
X333.6Y-131.4
X333.75Y-114.4
X334.1Y-140.4
X334.1Y-151.25
X334.3Y-128.35
X334.3Y-132.9
X334.9Y-141.75
X334.9Y-152.1
X336.3Y-114.8
T2
X83.9Y-129.55
X83.9Y-133.0
X83.9Y-136.45
X83.9Y-139.9
X83.95Y-144.05
X83.95Y-147.5
X83.95Y-150.95
T3
X90.2Y-117.717
X90.35Y-122.483
X90.35Y-136.783
X90.45Y-141.55
X90.5Y-127.25
X90.6Y-132.017
X90.7Y-146.317
X92.0Y-113.25
X94.54Y-113.25
X95.15Y-117.75
X95.15Y-122.508
X95.4Y-127.267
X95.55Y-132.025
X95.55Y-141.542
X95.6Y-136.783
X95.65Y-146.3
X97.08Y-113.25
X99.62Y-113.25
X100.05Y-117.75
X100.25Y-122.55
X100.3Y-127.35
X307.95Y-118.45
X308.05Y-123.3
X308.1Y-132.55
X308.15Y-128.05
X308.15Y-137.0
X308.15Y-141.55
X308.3Y-146.05
X312.95Y-123.25
X313.0Y-141.6
X313.0Y-145.95
X313.05Y-128.05
X313.1Y-118.45
X313.1Y-132.5
X313.1Y-136.9
X317.8Y-123.2
X317.8Y-128.1
X317.8Y-132.5
X317.8Y-136.9
X317.8Y-141.7
X317.95Y-118.5
X328.7Y-112.65
X331.24Y-112.65
X333.78Y-112.65
X336.32Y-112.65
X341.36Y-125.08
X341.36Y-127.62
X341.36Y-130.16
X341.36Y-132.7
X341.36Y-135.24
X341.36Y-137.78
X341.36Y-140.32
X341.36Y-142.86
X343.9Y-125.08
X343.9Y-127.62
X343.9Y-130.16
X343.9Y-132.7
X343.9Y-135.24
X343.9Y-137.78
X343.9Y-140.32
X343.9Y-142.86
T4
X77.25Y-142.15
X77.3Y-134.05
M30
