%TF.GenerationSoftware,KiCad,Pcbnew,8.0.9-8.0.9-0~ubuntu24.04.1*%
%TF.CreationDate,2025-12-06T18:21:55+00:00*%
%TF.ProjectId,app_board,6170705f-626f-4617-9264-2e6b69636164,rev?*%
%TF.SameCoordinates,Original*%
%TF.FileFunction,Legend,Bot*%
%TF.FilePolarity,Positive*%
%FSLAX46Y46*%
G04 Gerber Fmt 4.6, Leading zero omitted, Abs format (unit mm)*
G04 Created by KiCad (PCBNEW 8.0.9-8.0.9-0~ubuntu24.04.1) date 2025-12-06 18:21:55*
%MOMM*%
%LPD*%
G01*
G04 APERTURE LIST*
%ADD10C,2.000000*%
%ADD11C,1.400000*%
%ADD12C,4.400000*%
%ADD13R,1.700000X1.700000*%
%ADD14O,1.700000X1.700000*%
G04 APERTURE END LIST*
%LPC*%
D10*
%TO.C,TP123*%
X308150000Y-141550000D03*
%TD*%
D11*
%TO.C,H207*%
X83950000Y-144050000D03*
%TD*%
D10*
%TO.C,TP132*%
X313000000Y-141600000D03*
%TD*%
%TO.C,TP109*%
X95150000Y-122508333D03*
%TD*%
D11*
%TO.C,H206*%
X83900000Y-139900000D03*
%TD*%
D10*
%TO.C,TP133*%
X313000000Y-145950000D03*
%TD*%
%TO.C,TP101*%
X90200000Y-117716668D03*
%TD*%
%TO.C,TP125*%
X313100000Y-118450000D03*
%TD*%
D11*
%TO.C,H204*%
X83900000Y-133000000D03*
%TD*%
D10*
%TO.C,TP108*%
X95150000Y-117750000D03*
%TD*%
%TO.C,TP135*%
X317800000Y-123200000D03*
%TD*%
%TO.C,TP105*%
X90350000Y-136783332D03*
%TD*%
%TO.C,TP103*%
X90500000Y-127250000D03*
%TD*%
%TO.C,TP134*%
X317950000Y-118500000D03*
%TD*%
%TO.C,TP115*%
X100050000Y-117750000D03*
%TD*%
D12*
%TO.C,H201*%
X77300000Y-134050000D03*
%TD*%
D10*
%TO.C,TP114*%
X95650000Y-146300000D03*
%TD*%
%TO.C,TP107*%
X90700000Y-146316668D03*
%TD*%
%TO.C,TP102*%
X90350000Y-122483334D03*
%TD*%
%TO.C,TP129*%
X313050000Y-128050000D03*
%TD*%
%TO.C,TP130*%
X313100000Y-132500000D03*
%TD*%
D13*
%TO.C,J103*%
X328700000Y-112650000D03*
D14*
X331240000Y-112650000D03*
X333780000Y-112650000D03*
X336320000Y-112650000D03*
%TD*%
D10*
%TO.C,TP131*%
X313100000Y-136900000D03*
%TD*%
%TO.C,TP137*%
X317800000Y-132500000D03*
%TD*%
%TO.C,TP113*%
X95550000Y-141541665D03*
%TD*%
D13*
%TO.C,J101*%
X92000000Y-113250000D03*
D14*
X94540000Y-113250000D03*
X97080000Y-113250000D03*
X99620000Y-113250000D03*
%TD*%
D10*
%TO.C,TP138*%
X317800000Y-136900000D03*
%TD*%
D11*
%TO.C,H209*%
X83950000Y-150950000D03*
%TD*%
D10*
%TO.C,TP112*%
X95600000Y-136783332D03*
%TD*%
%TO.C,TP118*%
X307950000Y-118450000D03*
%TD*%
%TO.C,TP121*%
X308100000Y-132550000D03*
%TD*%
%TO.C,TP119*%
X308050000Y-123300000D03*
%TD*%
%TO.C,TP127*%
X312950000Y-123250000D03*
%TD*%
%TO.C,TP136*%
X317800000Y-128100000D03*
%TD*%
%TO.C,TP120*%
X308150000Y-128050000D03*
%TD*%
%TO.C,TP111*%
X95550000Y-132024999D03*
%TD*%
%TO.C,TP116*%
X100250000Y-122550000D03*
%TD*%
D11*
%TO.C,H205*%
X83900000Y-136450000D03*
%TD*%
D10*
%TO.C,TP124*%
X308300000Y-146050000D03*
%TD*%
%TO.C,TP104*%
X90600000Y-132016666D03*
%TD*%
%TO.C,TP110*%
X95400000Y-127266666D03*
%TD*%
D13*
%TO.C,J102*%
X341360000Y-125080000D03*
D14*
X343900000Y-125080000D03*
X341360000Y-127620000D03*
X343900000Y-127620000D03*
X341360000Y-130160000D03*
X343900000Y-130160000D03*
X341360000Y-132700000D03*
X343900000Y-132700000D03*
X341360000Y-135240000D03*
X343900000Y-135240000D03*
X341360000Y-137780000D03*
X343900000Y-137780000D03*
X341360000Y-140320000D03*
X343900000Y-140320000D03*
X341360000Y-142860000D03*
X343900000Y-142860000D03*
%TD*%
D10*
%TO.C,TP106*%
X90450000Y-141549998D03*
%TD*%
%TO.C,TP139*%
X317800000Y-141700000D03*
%TD*%
%TO.C,TP122*%
X308150000Y-137000000D03*
%TD*%
D11*
%TO.C,H208*%
X83950000Y-147500000D03*
%TD*%
D10*
%TO.C,TP117*%
X100300000Y-127350000D03*
%TD*%
D11*
%TO.C,H203*%
X83900000Y-129550000D03*
%TD*%
D12*
%TO.C,H202*%
X77250000Y-142150000D03*
%TD*%
%LPD*%
M02*
