%TF.GenerationSoftware,KiCad,Pcbnew,8.0.9-8.0.9-0~ubuntu24.04.1*%
%TF.CreationDate,2025-12-06T18:22:10+00:00*%
%TF.ProjectId,app_board,6170705f-626f-4617-9264-2e6b69636164,rev?*%
%TF.SameCoordinates,Original*%
%TF.FileFunction,Drillmap*%
%TF.FilePolarity,Positive*%
%FSLAX45Y45*%
G04 Gerber Fmt 4.5, Leading zero omitted, Abs format (unit mm)*
G04 Created by KiCad (PCBNEW 8.0.9-8.0.9-0~ubuntu24.04.1) date 2025-12-06 18:22:10*
%MOMM*%
%LPD*%
G01*
G04 APERTURE LIST*
%ADD10C,0.050000*%
%ADD11C,0.200000*%
G04 APERTURE END LIST*
D10*
X21280000Y-11800000D02*
X23430000Y-11800000D01*
X23430000Y-13000000D01*
X21280000Y-13000000D01*
X21280000Y-11800000D01*
X7275000Y-11005000D02*
X34875000Y-11005000D01*
X34875000Y-15505000D01*
X7275000Y-15505000D01*
X7275000Y-11005000D01*
D11*
X7533277Y-15818984D02*
X7533277Y-15618984D01*
X7533277Y-15618984D02*
X7580896Y-15618984D01*
X7580896Y-15618984D02*
X7609467Y-15628508D01*
X7609467Y-15628508D02*
X7628515Y-15647555D01*
X7628515Y-15647555D02*
X7638039Y-15666603D01*
X7638039Y-15666603D02*
X7647562Y-15704698D01*
X7647562Y-15704698D02*
X7647562Y-15733269D01*
X7647562Y-15733269D02*
X7638039Y-15771365D01*
X7638039Y-15771365D02*
X7628515Y-15790412D01*
X7628515Y-15790412D02*
X7609467Y-15809460D01*
X7609467Y-15809460D02*
X7580896Y-15818984D01*
X7580896Y-15818984D02*
X7533277Y-15818984D01*
X7733277Y-15818984D02*
X7733277Y-15685650D01*
X7733277Y-15723746D02*
X7742801Y-15704698D01*
X7742801Y-15704698D02*
X7752324Y-15695174D01*
X7752324Y-15695174D02*
X7771372Y-15685650D01*
X7771372Y-15685650D02*
X7790420Y-15685650D01*
X7857086Y-15818984D02*
X7857086Y-15685650D01*
X7857086Y-15618984D02*
X7847562Y-15628508D01*
X7847562Y-15628508D02*
X7857086Y-15638031D01*
X7857086Y-15638031D02*
X7866610Y-15628508D01*
X7866610Y-15628508D02*
X7857086Y-15618984D01*
X7857086Y-15618984D02*
X7857086Y-15638031D01*
X7980896Y-15818984D02*
X7961848Y-15809460D01*
X7961848Y-15809460D02*
X7952324Y-15790412D01*
X7952324Y-15790412D02*
X7952324Y-15618984D01*
X8085658Y-15818984D02*
X8066610Y-15809460D01*
X8066610Y-15809460D02*
X8057086Y-15790412D01*
X8057086Y-15790412D02*
X8057086Y-15618984D01*
X8314229Y-15818984D02*
X8314229Y-15618984D01*
X8314229Y-15618984D02*
X8380896Y-15761841D01*
X8380896Y-15761841D02*
X8447563Y-15618984D01*
X8447563Y-15618984D02*
X8447563Y-15818984D01*
X8628515Y-15818984D02*
X8628515Y-15714222D01*
X8628515Y-15714222D02*
X8618991Y-15695174D01*
X8618991Y-15695174D02*
X8599944Y-15685650D01*
X8599944Y-15685650D02*
X8561848Y-15685650D01*
X8561848Y-15685650D02*
X8542801Y-15695174D01*
X8628515Y-15809460D02*
X8609467Y-15818984D01*
X8609467Y-15818984D02*
X8561848Y-15818984D01*
X8561848Y-15818984D02*
X8542801Y-15809460D01*
X8542801Y-15809460D02*
X8533277Y-15790412D01*
X8533277Y-15790412D02*
X8533277Y-15771365D01*
X8533277Y-15771365D02*
X8542801Y-15752317D01*
X8542801Y-15752317D02*
X8561848Y-15742793D01*
X8561848Y-15742793D02*
X8609467Y-15742793D01*
X8609467Y-15742793D02*
X8628515Y-15733269D01*
X8723753Y-15685650D02*
X8723753Y-15885650D01*
X8723753Y-15695174D02*
X8742801Y-15685650D01*
X8742801Y-15685650D02*
X8780896Y-15685650D01*
X8780896Y-15685650D02*
X8799944Y-15695174D01*
X8799944Y-15695174D02*
X8809467Y-15704698D01*
X8809467Y-15704698D02*
X8818991Y-15723746D01*
X8818991Y-15723746D02*
X8818991Y-15780888D01*
X8818991Y-15780888D02*
X8809467Y-15799936D01*
X8809467Y-15799936D02*
X8799944Y-15809460D01*
X8799944Y-15809460D02*
X8780896Y-15818984D01*
X8780896Y-15818984D02*
X8742801Y-15818984D01*
X8742801Y-15818984D02*
X8723753Y-15809460D01*
X8904705Y-15799936D02*
X8914229Y-15809460D01*
X8914229Y-15809460D02*
X8904705Y-15818984D01*
X8904705Y-15818984D02*
X8895182Y-15809460D01*
X8895182Y-15809460D02*
X8904705Y-15799936D01*
X8904705Y-15799936D02*
X8904705Y-15818984D01*
X8904705Y-15695174D02*
X8914229Y-15704698D01*
X8914229Y-15704698D02*
X8904705Y-15714222D01*
X8904705Y-15714222D02*
X8895182Y-15704698D01*
X8895182Y-15704698D02*
X8904705Y-15695174D01*
X8904705Y-15695174D02*
X8904705Y-15714222D01*
M02*
